# xmcd
#
# Track frame offsets:
#	150
#	11270
#	25585
#	38373
#	52475
#	65523
#	78060
#	91680
#	105370
#	117488
#	131258
#	145400
#	155435
#	169138
#	188063
#	200918
#
# Disc length: 2842 seconds
#
# Revision: 1
# Processed by: cddbd v1.4b42PL1 Copyright (c) Steve Scherf et al.
# Submitted via: audiograbber 1.80
#
DISCID=c80b1810
DTITLE=Various Artist - Legenday Blues Classics Volume 2
DYEAR=1900
DGENRE=
TTITLE0=Lowell Fulsom - Rock 'Em Dead
TTITLE1=Bo Diddley - Say Man
TTITLE2=Sonny Boy Williamson - Keep It To Yourself
TTITLE3=Mitty Collier - Sharing You
TTITLE4=Elmore James - Dust My Broom
TTITLE5=Jimmy Rogers - Walking by Myself
TTITLE6=Little Milton - Who's Cheating Who
TTITLE7=John Lee Hooker - One Bourbon, One Scotch, One Beer
TTITLE8=Howlin' Wolf - How May More Years
TTITLE9=Willie Dixon - Walking the Blues
TTITLE10=Buddy Guy - My Time After a While
TTITLE11=B.B. King - Don't Keep Me Waiting
TTITLE12=Robert Nighthawk - Black Angel Blues
TTITLE13=Etta James - Baby What You Want Me to Do
TTITLE14=J.B. Lenoir - Eisenhower Blues
TTITLE15=Little Walter - Boom Boom, Out Go the Lights
EXTD=
EXTT0=
EXTT1=
EXTT2=
EXTT3=
EXTT4=
EXTT5=
EXTT6=
EXTT7=
EXTT8=
EXTT9=
EXTT10=
EXTT11=
EXTT12=
EXTT13=
EXTT14=
EXTT15=
PLAYORDER=
